
<svg viewBox="0 0 100 100" preserveAspectRatio="xMinYMin meet" fill="none" xmlns="http://www.w3.org/2000/svg" xmlns:xlink="http://www.w3.org/1999/xlink">
	<defs/>
	<path id="Vector" d="M57 99.7769L54.9882 98.0972C11.7353 62.8225 0 50.3924 0 30.2354C0 13.438 13.4117 0 30.1765 0C43.9235 0 51.6353 7.72681 57 13.7739C62.3647 7.72681 70.0765 0 83.8235 0C100.588 0 114 13.438 114 30.2354C114 50.3924 102.265 62.8225 59.0118 98.0972L57 99.7769ZM30.1765 6.71899C17.1 6.71899 6.70587 17.1334 6.70587 30.2354C6.70587 47.3688 17.4353 58.7911 57 91.0422C96.5647 58.7911 107.294 47.3688 107.294 30.2354C107.294 17.1334 96.9 6.71899 83.8235 6.71899C72.0883 6.71899 65.7177 13.7739 60.6882 19.485L57 23.8524L53.3118 19.485C48.2823 13.7739 41.9117 6.71899 30.1765 6.71899Z" fill="#C00000" fill-opacity="1.000000" fill-rule="nonzero"/>
</svg>
