<svg width="126" height="126" viewBox="0 0 126 126" fill="none" xmlns="http://www.w3.org/2000/svg">
<path d="M31.475 73.232L27.9391 105.336M12.462 103.659L43.4162 107.014" stroke="black" stroke-miterlimit="10" stroke-linecap="round" stroke-linejoin="round"/>
<path d="M20.6466 17.9703C20.4653 19.2798 20.2955 20.6019 20.148 21.9419C17.1636 49.0394 22.3041 71.8253 31.6284 72.836C40.9527 73.8467 50.9318 52.6997 53.9162 25.6022C54.0638 24.2622 54.1858 22.9349 54.2939 21.6175" stroke="black" stroke-miterlimit="10" stroke-linecap="round" stroke-linejoin="round"/>
<path d="M21.0929 55.1532C22.652 58.8107 28.0155 63.9312 36.9961 55.1532C45.9767 46.3751 49.4692 45.5106 50.0929 46.1756" stroke="black"/>
<path d="M87.2826 72.9709L94.8153 104.39M79.6678 107.964L109.961 100.817" stroke="black" stroke-miterlimit="10" stroke-linecap="round" stroke-linejoin="round"/>
<path d="M57.0451 24.58C57.3183 25.8746 57.6056 27.1748 57.9199 28.4877C64.2778 55.0065 76.8294 74.7587 85.9558 72.6062C95.0822 70.4536 97.3256 47.2093 90.9663 20.6905C90.655 19.3925 90.3247 18.0992 89.9755 16.8108" stroke="black" stroke-miterlimit="10" stroke-linecap="round" stroke-linejoin="round"/>
<path d="M64.0929 48C67.2654 51.7333 74.0188 56 78.5873 56C84.2978 56 84.5754 53 94.0929 53" stroke="black"/>
</svg>
