<svg width="114" height="100" viewBox="0 0 114 100" fill="none" xmlns="http://www.w3.org/2000/svg">
<path d="M57 99.8846L54.9882 98.2048C11.7353 62.9302 0 50.5 0 30.3431C0 13.5456 13.4118 0.107666 30.1765 0.107666C43.9235 0.107666 51.6353 7.8345 57 13.8816C62.3647 7.8345 70.0765 0.107666 83.8235 0.107666C100.588 0.107666 114 13.5456 114 30.3431C114 50.5 102.265 62.9302 59.0118 98.2048L57 99.8846ZM30.1765 6.82665C17.1 6.82665 6.70588 17.2411 6.70588 30.3431C6.70588 47.4765 17.4353 58.8988 57 91.1499C96.5647 58.8988 107.294 47.4765 107.294 30.3431C107.294 17.2411 96.9 6.82665 83.8235 6.82665C72.0882 6.82665 65.7177 13.8816 60.6882 19.5927L57 23.9601L53.3118 19.5927C48.2824 13.8816 41.9118 6.82665 30.1765 6.82665Z" fill="#C00000"/>
</svg>
